<?xml version="1.0" standalone="no"?>
<!DOCTYPE svg PUBLIC "-//W3C//DTD SVG 20010904//EN"
 "http://www.w3.org/TR/2001/REC-SVG-20010904/DTD/svg10.dtd">
<svg version="1.0" xmlns="http://www.w3.org/2000/svg"
 width="384.000000pt" height="420.000000pt" viewBox="0 0 384.000000 420.000000"
 preserveAspectRatio="xMidYMid meet">

<g transform="translate(0.000000,420.000000) scale(0.100000,-0.100000)"
fill="#000000" stroke="none">
<path d="M2237 4172 l-39 -17 5 -50 c3 -27 28 -246 56 -485 96 -837 122 -1083
114 -1091 -7 -7 -634 -29 -820 -29 l-68 0 -18 123 c-55 384 -160 1145 -182
1314 -15 119 -30 200 -38 205 -6 4 -29 8 -51 8 -30 0 -37 -3 -32 -15 4 -10 -1
-15 -15 -15 -17 0 -20 -5 -16 -22 10 -41 36 -257 87 -733 27 -258 51 -483 53
-498 3 -19 0 -26 -8 -23 -40 15 -442 28 -705 23 -304 -6 -417 -16 -457 -43
-29 -18 -72 -85 -79 -123 -15 -72 61 -216 171 -326 91 -91 187 -149 278 -169
l27 -6 0 -529 0 -529 -27 -7 c-53 -13 -124 -81 -128 -123 -1 -10 -6 -26 -10
-36 -5 -10 -3 -56 3 -102 54 -407 523 -728 1227 -839 140 -22 481 -31 630 -15
362 36 665 132 887 280 244 162 371 356 371 569 1 143 -42 256 -125 331 l-50
45 26 475 c14 261 26 483 26 493 0 12 8 17 30 17 108 0 276 74 360 159 92 92
116 167 89 276 l-11 44 -62 5 c-33 3 -333 22 -666 42 -333 20 -606 38 -607 39
-3 2 -66 641 -108 1094 -30 322 -30 321 -118 283z m67 -73 c8 -57 156 -1538
156 -1556 0 -7 -11 -13 -25 -13 -17 0 -26 7 -29 23 -3 12 -42 355 -86 762 -44
407 -82 756 -85 775 -4 28 0 38 17 51 32 24 45 14 52 -42z m-1093 18 c13 -6
25 -21 26 -32 1 -11 13 -92 27 -180 49 -303 207 -1398 203 -1400 -1 0 -32 1
-69 3 -43 2 -68 8 -68 15 0 7 -25 237 -55 512 -105 947 -116 1071 -98 1088 8
9 7 9 34 -6z m-131 -1289 c74 -7 150 -12 168 -12 17 -1 32 -4 32 -8 0 -4 7
-71 16 -148 9 -78 13 -144 10 -148 -9 -8 -427 14 -601 33 -319 34 -555 94
-610 155 -21 24 -11 81 19 109 21 20 40 22 252 30 254 10 509 6 714 -11z
m2010 -103 c305 -20 571 -38 590 -42 27 -5 -8 -13 -160 -39 -336 -56 -1018
-124 -1031 -102 -4 6 -10 51 -13 102 -4 50 -9 98 -12 106 -3 12 4 15 34 13 20
-2 287 -19 592 -38z m-2908 -105 c404 -157 1648 -192 2788 -79 227 22 502 59
684 90 134 24 136 23 136 -46 -1 -141 -181 -291 -392 -324 -34 -6 -64 -9 -66
-7 -2 3 1 14 8 25 8 17 8 22 -3 27 -8 3 -257 -2 -553 -10 -817 -24 -1979 -55
-2160 -58 l-160 -3 -80 39 c-146 72 -311 265 -330 387 l-7 44 30 -28 c17 -15
64 -41 105 -57z m3118 -344 c0 -18 -61 -1120 -65 -1187 -4 -60 -3 -89 5 -94
20 -12 25 5 30 107 l5 100 45 -44 c85 -81 124 -271 86 -414 -72 -271 -383
-508 -820 -624 -226 -60 -345 -74 -631 -74 -281 -1 -382 10 -600 61 -505 119
-888 393 -967 693 -23 90 -23 197 0 233 33 49 112 97 112 67 0 -5 7 -10 15
-10 13 0 15 71 17 558 l3 557 430 12 c237 6 804 21 1260 32 793 20 937 24
1033 29 23 1 42 0 42 -2z"/>
<path d="M2327 2149 c-38 -32 -74 -92 -97 -164 -7 -22 -16 -44 -20 -50 -28
-38 -30 -84 -11 -286 10 -112 16 -208 14 -213 -6 -10 15 -153 27 -181 5 -11
16 -45 26 -75 43 -140 133 -271 197 -288 137 -37 227 163 227 497 -1 342 -99
669 -230 762 -14 10 -41 21 -60 24 -29 5 -41 1 -73 -26z m-80 -332 c4 -7 31
-29 60 -49 99 -70 157 -125 167 -155 8 -25 -30 -73 -76 -97 -18 -10 -51 -28
-73 -42 -59 -35 -73 -32 -79 19 -7 48 -26 288 -26 318 0 22 15 25 27 6z"/>
<path d="M1492 2135 c-50 -27 -92 -81 -123 -154 -17 -42 -35 -80 -39 -86 -5
-5 -14 -55 -20 -110 -31 -267 55 -630 186 -783 39 -46 102 -75 142 -66 135 32
219 298 192 612 -25 290 -124 515 -253 577 -57 28 -54 28 -85 10z m-55 -284
c98 -71 177 -163 178 -206 0 -5 4 -13 8 -16 9 -6 -28 -51 -113 -138 -120 -122
-144 -130 -157 -53 -13 76 -10 383 4 415 16 34 30 34 80 -2z"/>
<path d="M2628 803 c-8 -10 -14 -23 -11 -29 5 -14 -65 -78 -114 -102 -202
-103 -560 -102 -838 3 -83 31 -171 80 -184 103 -8 14 -14 12 -47 -13 -179
-135 -181 -300 -5 -424 143 -100 349 -151 609 -151 225 0 385 31 537 105 243
117 300 278 153 429 -31 33 -58 66 -60 74 -4 23 -22 25 -40 5z m-1034 -129
c51 -24 116 -49 144 -55 29 -7 52 -17 52 -23 0 -11 -189 -316 -196 -316 -2 0
-36 16 -75 36 -83 41 -153 102 -181 158 -42 82 -7 188 84 255 l40 29 20 -20
c11 -11 62 -40 112 -64z m1107 39 c109 -99 105 -212 -12 -317 -45 -41 -179
-116 -206 -116 -11 0 -126 285 -121 300 2 6 36 22 76 36 82 27 133 57 176 103
17 17 33 31 38 31 4 0 26 -17 49 -37z m-693 -139 c91 -6 112 -10 112 -22 0 -9
-26 -89 -57 -180 l-58 -165 -87 7 c-87 6 -255 38 -283 53 -11 7 2 32 61 123
137 210 131 203 167 196 18 -3 83 -9 145 -12z m326 -31 c29 -60 105 -243 108
-260 2 -11 -11 -20 -42 -29 -69 -21 -230 -44 -303 -44 l-66 0 25 68 c13 37 43
117 66 179 l42 112 56 4 c30 2 64 4 76 5 15 1 25 -8 38 -35z"/>
<path d="M1450 2830 c0 -5 6 -10 13 -10 47 0 709 -31 780 -36 76 -5 87 -4 87
10 0 9 -3 16 -7 16 -138 4 -367 13 -541 20 -281 13 -332 12 -332 0z"/>
</g>
</svg>
